<?xml version="1.0" encoding="UTF-8" standalone="no"?><svg xmlns="http://www.w3.org/2000/svg" xmlns:xlink="http://www.w3.org/1999/xlink" clip-rule="evenodd" stroke-miterlimit="10" viewBox="0 0 1024 768"><desc>SVG generated by Keynote</desc><defs></defs><g transform="matrix(1.00, 0.00, -0.00, -1.00, 0.0, 768.0)"><path d="M 0.0 768.0 L 1024.0 768.0 L 1024.0 0.0 L 0.0 0.0 Z M 0.0 768.0 " fill="#000000"></path><image xlink:href="../../0C430761-B5B9-4349-9A49-2DBE2A869F7D/assets/50ACAC2E26706CA453BDF379DF09BB42.png" width="768.00" height="1280.00" transform="matrix(0.60, 0.00, -0.00, -0.60, 282.0, 768.0)"></image><g opacity="0.70"><g><clipPath id="clip0x6080010b51e0"><path d="M 280.0 297.0 L 744.0 297.0 L 744.0 768.0 L 280.0 768.0 Z M 280.0 297.0 "></path></clipPath><g clip-path="url(#clip0x6080010b51e0)"><path d="M 281.0 767.0 L 743.0 767.0 L 743.0 299.0 L 281.0 299.0 Z M 281.4 766.6 " fill="#000000"></path></g></g></g><g opacity="0.70"><g><clipPath id="clip0x6080012abb20"><path d="M 280.0 56.0 L 744.0 56.0 L 744.0 120.0 L 280.0 120.0 Z M 280.0 56.0 "></path></clipPath><g clip-path="url(#clip0x6080012abb20)"><path d="M 281.0 119.0 L 743.0 119.0 L 743.0 57.0 L 281.0 57.0 Z M 281.4 118.8 " fill="#000000"></path></g></g></g></g></svg>