<?xml version="1.0" encoding="UTF-8" standalone="no"?><svg xmlns="http://www.w3.org/2000/svg" xmlns:xlink="http://www.w3.org/1999/xlink" clip-rule="evenodd" stroke-miterlimit="10" viewBox="0 0 1024 768"><desc>SVG generated by Keynote</desc><defs></defs><g transform="matrix(1.00, 0.00, -0.00, -1.00, 0.0, 768.0)"><path d="M 0.0 768.0 L 1024.0 768.0 L 1024.0 0.0 L 0.0 0.0 Z M 0.0 768.0 " fill="#000000"></path><image xlink:href="../../631F3363-9B63-458F-8E6C-8313450C2980/assets/612E354FE7B72FC96DD6373F92A0F9E0.png" width="800.00" height="600.00" transform="matrix(0.55, 0.00, -0.00, -0.55, -24.0, 785.0)"></image><image xlink:href="F4A98E294E92C05E95FB3573C02897B2.png" width="288.00" height="514.00" transform="matrix(0.62, 0.00, -0.00, -0.62, 774.0, 740.0)"></image><text xml:space="preserve" font-family="Avenir-Black,Avenir" font-weight="bold" font-size="45.1" fill="#FEFFFE" transform="matrix(1.00, 0.00, -0.00, -1.00, 304.8, 369.5)">F</text><text xml:space="preserve" font-family="Avenir-Black,Avenir" font-weight="bold" font-size="45.1" fill="#FEFFFE" transform="matrix(1.00, 0.00, -0.00, -1.00, 338.8, 369.5)">U</text><text xml:space="preserve" font-family="Avenir-Black,Avenir" font-weight="bold" font-size="45.1" fill="#FEFFFE" transform="matrix(1.00, 0.00, -0.00, -1.00, 379.4, 369.5)">T</text><text xml:space="preserve" font-family="Avenir-Black,Avenir" font-weight="bold" font-size="45.1" fill="#FEFFFE" transform="matrix(1.00, 0.00, -0.00, -1.00, 412.5, 369.5)">U</text><text xml:space="preserve" font-family="Avenir-Black,Avenir" font-weight="bold" font-size="45.1" fill="#FEFFFE" transform="matrix(1.00, 0.00, -0.00, -1.00, 453.2, 369.5)">R</text><text xml:space="preserve" font-family="Avenir-Black,Avenir" font-weight="bold" font-size="45.1" fill="#FEFFFE" transform="matrix(1.00, 0.00, -0.00, -1.00, 489.6, 369.5)">E</text><text xml:space="preserve" font-family="Avenir-Black,Avenir" font-weight="bold" font-size="45.1" fill="#FEFFFE" transform="matrix(1.00, 0.00, -0.00, -1.00, 525.3, 369.5)"> </text><text xml:space="preserve" font-family="Avenir-Black,Avenir" font-weight="bold" font-size="45.1" fill="#FEFFFE" transform="matrix(1.00, 0.00, -0.00, -1.00, 545.9, 369.5)">W</text><text xml:space="preserve" font-family="Avenir-Black,Avenir" font-weight="bold" font-size="45.1" fill="#FEFFFE" transform="matrix(1.00, 0.00, -0.00, -1.00, 598.2, 369.5)">O</text><text xml:space="preserve" font-family="Avenir-Black,Avenir" font-weight="bold" font-size="45.1" fill="#FEFFFE" transform="matrix(1.00, 0.00, -0.00, -1.00, 643.0, 369.5)">R</text><text xml:space="preserve" font-family="Avenir-Black,Avenir" font-weight="bold" font-size="45.1" fill="#FEFFFE" transform="matrix(1.00, 0.00, -0.00, -1.00, 679.4, 369.5)">K</text></g></svg>