<?xml version="1.0" encoding="UTF-8" standalone="no"?><svg xmlns="http://www.w3.org/2000/svg" xmlns:xlink="http://www.w3.org/1999/xlink" clip-rule="evenodd" stroke-miterlimit="10" viewBox="0 0 1024 768"><desc>SVG generated by Keynote</desc><defs></defs><g transform="matrix(1.00, 0.00, -0.00, -1.00, 0.0, 768.0)"><path d="M 0.0 768.0 L 1024.0 768.0 L 1024.0 0.0 L 0.0 0.0 Z M 0.0 768.0 " fill="#000000"></path><image xlink:href="../../7F2ACDF2-AED8-4857-8E75-5E35110E3D48/assets/FB09047B66E062B7349714A2C2BB97F6.png" width="768.00" height="1280.00" transform="matrix(0.60, 0.00, -0.00, -0.60, 282.0, 768.0)"></image><g opacity="0.70"><g><clipPath id="clip0x608000eb7f40"><path d="M 280.0 171.0 L 744.0 171.0 L 744.0 765.0 L 280.0 765.0 Z M 280.0 171.0 "></path></clipPath><g clip-path="url(#clip0x608000eb7f40)"><path d="M 281.0 763.0 L 743.0 763.0 L 743.0 172.0 L 281.0 172.0 Z M 281.4 763.4 " fill="#000000"></path></g></g></g><g opacity="0.82"><g><clipPath id="clip0x6080012a6ba0"><path d="M 280.0 0.0 L 744.0 0.0 L 744.0 58.0 L 280.0 58.0 Z M 280.0 0.0 "></path></clipPath><g clip-path="url(#clip0x6080012a6ba0)"><path d="M 281.0 57.0 L 743.0 57.0 L 743.0 1.0 L 281.0 1.0 Z M 281.4 56.9 " fill="#000000"></path></g></g></g><g opacity="0.70"><g><clipPath id="clip0x608000ea8ca0"><path d="M 510.0 55.0 L 747.0 55.0 L 747.0 174.0 L 510.0 174.0 Z M 510.0 55.0 "></path></clipPath><g clip-path="url(#clip0x608000ea8ca0)"><path d="M 512.0 172.0 L 745.0 172.0 L 745.0 56.0 L 512.0 56.0 Z M 511.7 172.4 " fill="#000000"></path></g></g></g></g></svg>