<?xml version="1.0" encoding="UTF-8" standalone="no"?><svg xmlns="http://www.w3.org/2000/svg" xmlns:xlink="http://www.w3.org/1999/xlink" clip-rule="evenodd" stroke-miterlimit="10" viewBox="0 0 1024 768"><desc>SVG generated by Keynote</desc><defs></defs><g transform="matrix(1.00, 0.00, -0.00, -1.00, 0.0, 768.0)"><path d="M 0.0 768.0 L 1024.0 768.0 L 1024.0 0.0 L 0.0 0.0 Z M 0.0 768.0 " fill="#000000"></path><text xml:space="preserve" font-family="Avenir-Black,Avenir" font-weight="bold" font-size="45.1" fill="#FEFFFE" transform="matrix(1.00, 0.00, -0.00, -1.00, 330.1, 369.5)">M</text><text xml:space="preserve" font-family="Avenir-Black,Avenir" font-weight="bold" font-size="45.1" fill="#FEFFFE" transform="matrix(1.00, 0.00, -0.00, -1.00, 380.0, 369.5)">O</text><text xml:space="preserve" font-family="Avenir-Black,Avenir" font-weight="bold" font-size="45.1" fill="#FEFFFE" transform="matrix(1.00, 0.00, -0.00, -1.00, 424.7, 369.5)">T</text><text xml:space="preserve" font-family="Avenir-Black,Avenir" font-weight="bold" font-size="45.1" fill="#FEFFFE" transform="matrix(1.00, 0.00, -0.00, -1.00, 457.8, 369.5)">I</text><text xml:space="preserve" font-family="Avenir-Black,Avenir" font-weight="bold" font-size="45.1" fill="#FEFFFE" transform="matrix(1.00, 0.00, -0.00, -1.00, 478.4, 369.5)">V</text><text xml:space="preserve" font-family="Avenir-Black,Avenir" font-weight="bold" font-size="45.1" fill="#FEFFFE" transform="matrix(1.00, 0.00, -0.00, -1.00, 514.9, 369.5)">A</text><text xml:space="preserve" font-family="Avenir-Black,Avenir" font-weight="bold" font-size="45.1" fill="#FEFFFE" transform="matrix(1.00, 0.00, -0.00, -1.00, 551.4, 369.5)">T</text><text xml:space="preserve" font-family="Avenir-Black,Avenir" font-weight="bold" font-size="45.1" fill="#FEFFFE" transform="matrix(1.00, 0.00, -0.00, -1.00, 584.5, 369.5)">I</text><text xml:space="preserve" font-family="Avenir-Black,Avenir" font-weight="bold" font-size="45.1" fill="#FEFFFE" transform="matrix(1.00, 0.00, -0.00, -1.00, 605.1, 369.5)">O</text><text xml:space="preserve" font-family="Avenir-Black,Avenir" font-weight="bold" font-size="45.1" fill="#FEFFFE" transform="matrix(1.00, 0.00, -0.00, -1.00, 649.9, 369.5)">N</text><image xlink:href="86E10F78359EF94718C78D33EA5C383A.png" width="250.00" height="250.00" transform="matrix(1.00, 0.00, -0.00, -1.00, 80.0, 710.0)"></image></g></svg>