<?xml version="1.0" encoding="UTF-8" standalone="no"?><svg xmlns="http://www.w3.org/2000/svg" xmlns:xlink="http://www.w3.org/1999/xlink" clip-rule="evenodd" stroke-miterlimit="10" viewBox="0 0 1024 768"><desc>SVG generated by Keynote</desc><defs></defs><g transform="matrix(1.00, 0.00, -0.00, -1.00, 0.0, 768.0)"><path d="M 0.0 768.0 L 1024.0 768.0 L 1024.0 0.0 L 0.0 0.0 Z M 0.0 768.0 " fill="#000000"></path><text xml:space="preserve" font-family="Avenir-Black,Avenir" font-weight="bold" font-size="43.7" fill="#FEFFFE" transform="matrix(1.00, 0.00, -0.00, -1.00, 305.0, 370.0)">K</text><text xml:space="preserve" font-family="Avenir-Black,Avenir" font-weight="bold" font-size="43.7" fill="#FEFFFE" transform="matrix(1.00, 0.00, -0.00, -1.00, 343.6, 370.0)">E</text><text xml:space="preserve" font-family="Avenir-Black,Avenir" font-weight="bold" font-size="43.7" fill="#FEFFFE" transform="matrix(1.00, 0.00, -0.00, -1.00, 378.1, 370.0)">Y</text><text xml:space="preserve" font-family="Avenir-Black,Avenir" font-weight="bold" font-size="43.7" fill="#FEFFFE" transform="matrix(1.00, 0.00, -0.00, -1.00, 413.4, 370.0)"> </text><text xml:space="preserve" font-family="Avenir-Black,Avenir" font-weight="bold" font-size="43.7" fill="#FEFFFE" transform="matrix(1.00, 0.00, -0.00, -1.00, 433.3, 370.0)">L</text><text xml:space="preserve" font-family="Avenir-Black,Avenir" font-weight="bold" font-size="43.7" fill="#FEFFFE" transform="matrix(1.00, 0.00, -0.00, -1.00, 463.7, 370.0)">E</text><text xml:space="preserve" font-family="Avenir-Black,Avenir" font-weight="bold" font-size="43.7" fill="#FEFFFE" transform="matrix(1.00, 0.00, -0.00, -1.00, 498.2, 370.0)">A</text><text xml:space="preserve" font-family="Avenir-Black,Avenir" font-weight="bold" font-size="43.7" fill="#FEFFFE" transform="matrix(1.00, 0.00, -0.00, -1.00, 537.6, 370.0)">R</text><text xml:space="preserve" font-family="Avenir-Black,Avenir" font-weight="bold" font-size="43.7" fill="#FEFFFE" transform="matrix(1.00, 0.00, -0.00, -1.00, 572.9, 370.0)">N</text><text xml:space="preserve" font-family="Avenir-Black,Avenir" font-weight="bold" font-size="43.7" fill="#FEFFFE" transform="matrix(1.00, 0.00, -0.00, -1.00, 615.5, 370.0)">I</text><text xml:space="preserve" font-family="Avenir-Black,Avenir" font-weight="bold" font-size="43.7" fill="#FEFFFE" transform="matrix(1.00, 0.00, -0.00, -1.00, 635.4, 370.0)">N</text><text xml:space="preserve" font-family="Avenir-Black,Avenir" font-weight="bold" font-size="43.7" fill="#FEFFFE" transform="matrix(1.00, 0.00, -0.00, -1.00, 678.0, 370.0)">G</text><image xlink:href="70A6B43CF514697E1B43380CCDE141A6.png" width="248.00" height="256.00" transform="matrix(1.00, 0.00, -0.00, -1.00, 66.0, 716.0)"></image></g></svg>